<svg xmlns="http://www.w3.org/2000/svg" xmlns:xlink="http://www.w3.org/1999/xlink" width="100" height="100" viewBox="0 0 100 100"><defs><style>.a,.c{fill:#9bdaf2;}.a{stroke:#707070;}.b{clip-path:url(#a);}</style><clipPath id="a"><rect class="a" width="100" height="100" transform="translate(227.75 3357)"/></clipPath></defs><g class="b" transform="translate(-227.75 -3357)"><path class="c" d="M0,14.286l7.79,88.348,35.067,11.652,35.067-11.652,7.79-88.348ZM69.888,32.143,68.817,42.7l-25.737,11-.067.022H67.9L65.045,86.451l-21.92,6.406L21.071,86.339l-1.429-16.5H30.558l.714,8.549,11.741,2.969,12.21-3.437.826-13.75-37.121-.112V64.04l-.045.022-.8-10.335L43.1,43.3l1.451-.6H17.121L15.826,32.143Z" transform="translate(234.893 3342.714)"/></g></svg>