<svg xmlns="http://www.w3.org/2000/svg" xmlns:xlink="http://www.w3.org/1999/xlink" width="100" height="100" viewBox="0 0 100 100"><defs><style>.a,.c{fill:#9bdaf2;}.a{stroke:#707070;}.b{clip-path:url(#a);}</style><clipPath id="a"><rect class="a" width="100" height="100" transform="translate(227.75 3357)"/></clipPath></defs><g class="b" transform="translate(-227.75 -3357)"><path class="c" d="M39.905.97A49.736,49.736,0,0,0,1.018,39.72c-7.227,36.524,25.723,63.751,50.548,59.9,8.047-1.25,11.992-10.664,8.3-17.91A13.215,13.215,0,0,1,71.761,62.494H87.328A12.779,12.779,0,0,0,100,49.74,50.038,50.038,0,0,0,39.905.97ZM18.753,62.494A6.25,6.25,0,1,1,25,56.244,6.243,6.243,0,0,1,18.753,62.494Zm6.25-25a6.25,6.25,0,1,1,6.25-6.25A6.243,6.243,0,0,1,25,37.494Zm25-12.5a6.25,6.25,0,1,1,6.25-6.25A6.243,6.243,0,0,1,50,24.994Zm25,12.5a6.25,6.25,0,1,1,6.25-6.25A6.243,6.243,0,0,1,75,37.494Z" transform="translate(227.746 3357.014)"/></g></svg>