<svg xmlns="http://www.w3.org/2000/svg" xmlns:xlink="http://www.w3.org/1999/xlink" width="100" height="100" viewBox="0 0 100 100"><defs><style>.a,.c{fill:#9bdaf2;}.a{stroke:#707070;}.b{clip-path:url(#a);}</style><clipPath id="a"><rect class="a" width="100" height="100"/></clipPath></defs><g class="b"><path class="c" d="M34.221,41.733a21.422,21.422,0,0,0,31.558,0L50,25,34.221,41.733Zm-7.279,7.725a31.31,31.31,0,0,0,46.117,0l9.708,10.3a44.493,44.493,0,0,1-65.533,0l9.708-10.3ZM9.95,67.479a54.386,54.386,0,0,0,80.1,0L100,78.033A68.528,68.528,0,0,1,50,100,68.528,68.528,0,0,1,0,78.033L9.95,67.479Z" transform="translate(0 -12.5)"/></g></svg>