<svg xmlns="http://www.w3.org/2000/svg" xmlns:xlink="http://www.w3.org/1999/xlink" width="100" height="100" viewBox="0 0 100 100"><defs><style>.a,.c{fill:#9bdaf2;}.a{stroke:#707070;}.b{clip-path:url(#a);}</style><clipPath id="a"><rect class="a" width="100" height="100" transform="translate(0 -0.414)"/></clipPath></defs><g class="b" transform="translate(0 0.414)"><path class="c" d="M97.5,65H59.616A4.926,4.926,0,0,1,54.5,70H45a5.306,5.306,0,0,1-5.12-5H2.5A2.507,2.507,0,0,0,0,67.5V70A10.029,10.029,0,0,0,10,80H90a10.029,10.029,0,0,0,10-10V67.5A2.507,2.507,0,0,0,97.5,65ZM90,7.5A7.522,7.522,0,0,0,82.5,0h-65A7.522,7.522,0,0,0,10,7.5V60H90ZM80,50H20V10H80Z" transform="translate(0 9.862)"/></g></svg>