<svg xmlns="http://www.w3.org/2000/svg" xmlns:xlink="http://www.w3.org/1999/xlink" width="100" height="100" viewBox="0 0 100 100"><defs><style>.a,.c{fill:#9bdaf2;}.a{stroke:#707070;}.b{clip-path:url(#a);}</style><clipPath id="a"><rect class="a" width="100" height="100" transform="translate(227.75 3357)"/></clipPath></defs><g class="b" transform="translate(-227.75 -3357)"><path class="c" d="M14.052,35.766,34.516,91.815A42.9,42.9,0,0,1,14.052,35.766Zm68.125,15.3a22.619,22.619,0,0,0-3.528-11.835c-2.177-3.528-4.214-6.532-4.214-10.06a7.424,7.424,0,0,1,7.2-7.621c.181,0,.363.02.565.04a42.887,42.887,0,0,0-64.819,8.065c1.008.04,1.956.06,2.762.06,4.476,0,11.431-.544,11.431-.544a1.77,1.77,0,0,1,.282,3.528s-2.319.262-4.9.4L42.581,79.556l9.4-28.145L45.3,33.1c-2.319-.141-4.5-.4-4.5-.4-2.319-.141-2.036-3.669.262-3.528,0,0,7.077.544,11.29.544,4.476,0,11.431-.544,11.431-.544a1.77,1.77,0,0,1,.282,3.528s-2.319.262-4.9.4l15.5,46.109,4.274-14.294c1.815-5.927,3.226-10.181,3.226-13.851ZM53.972,56.976l-12.863,37.4A42.738,42.738,0,0,0,67.46,93.69a3.212,3.212,0,0,1-.3-.585Zm36.9-24.335a33.416,33.416,0,0,1,.282,4.415,40.294,40.294,0,0,1-3.266,15.363L74.778,90.3A42.934,42.934,0,0,0,90.867,32.641Zm12.359,20.585a50,50,0,1,1-50-50A50.056,50.056,0,0,1,103.226,53.226Zm-2.3,0a47.7,47.7,0,1,0-47.7,47.7A47.759,47.759,0,0,0,100.927,53.226Z" transform="translate(224.524 3353.774)"/></g></svg>