<svg xmlns="http://www.w3.org/2000/svg" xmlns:xlink="http://www.w3.org/1999/xlink" width="150" height="150" viewBox="0 0 150 150"><defs><style>.a,.c{fill:#9bdaf2;}.a{stroke:#707070;}.b{clip-path:url(#a);}.c{fill-rule:evenodd;}</style><clipPath id="a"><circle class="a" cx="75" cy="75" r="75" transform="translate(0.157)"/></clipPath></defs><g class="b" transform="translate(-0.157)"><path class="c" d="M39.063,108.263,25,100.631,38.963,81.463,25,69.213,54.456,53.2a41.385,41.385,0,0,1,3.775,5.044l-22.4,12.175L43.213,76.9,62.325,66.363a37.845,37.845,0,0,1,1.762,6.106L43.706,83.725l37.613,19.431L118.75,83.75,99.05,72.844a39.234,39.234,0,0,1,1.55-6.05l18.331,10.094,7.712-6.844L104.769,58.45a51.4,51.4,0,0,1,3.838-5.019L137.5,68.738l-14.131,12.55.069.037L137.5,100.581l-14.062,7.65v19.294L81.25,150,39.063,127.525V108.262Zm45.288-.588v33.606l32.844-17.494V111.625L95.313,123.531ZM45.306,111.65v12.137l32.8,17.475V107.681l-10.919,15.85L45.306,111.65ZM34.231,98.55l31,16.825,6.869-9.963L40.956,89.319,34.231,98.55Zm56.175,6.919,6.85,9.906,31.006-16.863-6.706-9.194-31.15,16.15ZM82.956,87.25H79.7a3.382,3.382,0,0,1-2.238-.794l-4.325-2.844H89.519l-4.325,2.844A3.358,3.358,0,0,1,82.956,87.25Zm6.719-7.275H73.081a1.816,1.816,0,1,1,0-3.631H89.675a1.816,1.816,0,1,1,0,3.631Zm1.794-7.269H71.188c0-14.356-11.7-20.569-11.7-33.544,0-13.538,10.913-20.988,21.831-20.988s21.856,7.462,21.856,20.988C103.175,52.137,91.475,58.15,91.469,72.706Zm-5.631-6.231c1.175-5.963,3.9-10.556,6.362-14.725,2.65-4.462,4.731-7.994,4.731-12.588,0-9.688-7.856-14.756-15.613-14.756S65.725,29.475,65.725,39.162c0,4.619,2.106,8.2,4.769,12.719,2.45,4.15,5.138,8.725,6.325,14.594ZM52.356,39.469H41.281V33.238H52.644a24.053,24.053,0,0,0-.369,4.212Zm69.019,0H110.369l.088-2.019a23.468,23.468,0,0,0-.375-4.212h11.294ZM58.981,20.65a25.994,25.994,0,0,0-3.65,5.056l-8.994-6.381,3.613-5.081,9.031,6.406Zm44.744-.031,8.981-6.375,3.612,5.081-8.937,6.344A26.441,26.441,0,0,0,103.725,20.619ZM70.6,12.994A30.654,30.654,0,0,0,64.981,15.7L60.156,5.856l5.606-2.737Zm21.469-.025L96.9,3.119l5.6,2.737-4.806,9.813A30.1,30.1,0,0,0,92.069,12.969ZM84.45,11.275c-1.012-.1-2.044-.15-3.088-.15-1.062,0-2.119.056-3.156.156V0H84.45Z" transform="translate(-6.25)"/></g></svg>