<svg xmlns="http://www.w3.org/2000/svg" width="40" height="45.714" viewBox="0 0 40 45.714"><defs><style>.a{fill:#f2bd1d;}</style></defs><path class="a" d="M31.98,16.014a5.873,5.873,0,0,0-7.131-1.705A5.868,5.868,0,0,0,19.8,12.557V5.982a5.919,5.919,0,1,0-11.837,0V20.369a5.846,5.846,0,0,0-5.543.792,6.022,6.022,0,0,0-1.3,8.317l9.795,13.75a5.914,5.914,0,0,0,4.8,2.486H31.632A5.936,5.936,0,0,0,37.4,41.09l2.449-10.625A6.06,6.06,0,0,0,40,29.107v-7.5A5.934,5.934,0,0,0,31.98,16.014ZM7.231,24.973l2.422,3.4a1.43,1.43,0,0,0,2.592-.829V5.982a1.633,1.633,0,1,1,3.265,0V21.607a1.429,1.429,0,0,0,1.429,1.429h.612a1.429,1.429,0,0,0,1.429-1.429V18.482a1.633,1.633,0,1,1,3.265,0v3.125a1.429,1.429,0,0,0,1.429,1.429h.612a1.429,1.429,0,0,0,1.429-1.429V19.732a1.633,1.633,0,1,1,3.265,0v1.875a1.429,1.429,0,0,0,1.429,1.429h.612a1.429,1.429,0,0,0,1.429-1.429,1.633,1.633,0,1,1,3.265,0v7.5a1.763,1.763,0,0,1-.045.395L33.22,40.127a1.641,1.641,0,0,1-1.588,1.3H15.714a1.62,1.62,0,0,1-1.312-.687l-9.8-13.75c-1.286-1.806,1.339-3.823,2.624-2.018Zm8.5,10.741V27.143a1.348,1.348,0,0,1,1.25-1.429h.536a1.348,1.348,0,0,1,1.25,1.429v8.571a1.348,1.348,0,0,1-1.25,1.429h-.536A1.348,1.348,0,0,1,15.727,35.714Zm6.735,0V27.143a1.348,1.348,0,0,1,1.25-1.429h.536a1.348,1.348,0,0,1,1.25,1.429v8.571a1.348,1.348,0,0,1-1.25,1.429h-.536A1.348,1.348,0,0,1,22.462,35.714Zm6.735,0V27.143a1.348,1.348,0,0,1,1.25-1.429h.536a1.348,1.348,0,0,1,1.25,1.429v8.571a1.348,1.348,0,0,1-1.25,1.429h-.536A1.348,1.348,0,0,1,29.2,35.714Z" transform="translate(0)"/></svg>